<svg xmlns="http://www.w3.org/2000/svg" width="720" height="531">
 <!-- Created with Image Occlusion Enhanced -->
 <g>
  <title>Labels</title>
 </g>
 <g>
  <title>Masks</title>
  <rect id="86646163894148ffa69d4bb57d84f1e5-oa-1" height="16.27232" width="34.35268" y="31.90179" x="226.20539" stroke="#2D2D2D" fill="#FFEBA2"/>
  <rect id="86646163894148ffa69d4bb57d84f1e5-oa-2" height="19.88839" width="56.04911" y="31.90179" x="332.8795" stroke="#2D2D2D" fill="#FFEBA2"/>
  <rect id="86646163894148ffa69d4bb57d84f1e5-oa-3" height="12.65625" width="56.04911" y="97.59376" x="380.49111" stroke="#2D2D2D" fill="#FFEBA2"/>
  <rect id="86646163894148ffa69d4bb57d84f1e5-oa-4" height="15.06696" width="34.35268" y="97.59376" x="276.83039" stroke="#2D2D2D" fill="#FFEBA2"/>
  <rect id="86646163894148ffa69d4bb57d84f1e5-oa-5" height="19.88839" width="42.79018" y="154.84823" x="209.93307" stroke="#2D2D2D" fill="#FFEBA2"/>
  <rect id="86646163894148ffa69d4bb57d84f1e5-oa-6" height="21.69643" width="62.67857" y="156.05358" x="332.8795" stroke="#2D2D2D" fill="#FFEBA2"/>
  <rect id="86646163894148ffa69d4bb57d84f1e5-oa-7" height="18.08036" width="45.80357" y="218.73216" x="367.23218" stroke="#2D2D2D" fill="#FFEBA2"/>
  <rect id="86646163894148ffa69d4bb57d84f1e5-oa-8" height="15.66964" width="32.54464" y="218.73216" x="262.3661" stroke="#2D2D2D" fill="#FFEBA2"/>
  <rect id="86646163894148ffa69d4bb57d84f1e5-oa-9" height="18.08036" width="39.77679" y="279.60269" x="234.04021" stroke="#2D2D2D" fill="#FFEBA2"/>
  <rect id="86646163894148ffa69d4bb57d84f1e5-oa-10" height="25.3125" width="62.07589" y="277.19198" x="337.70093" stroke="#2D2D2D" fill="#FFEBA2"/>
  <rect id="86646163894148ffa69d4bb57d84f1e5-oa-11" height="24.10714" width="86.78572" y="340.47323" x="366.02682" stroke="#2D2D2D" fill="#FFEBA2"/>
  <rect id="86646163894148ffa69d4bb57d84f1e5-oa-12" height="21.09375" width="35.55804" y="340.47323" x="259.95539" stroke="#2D2D2D" fill="#FFEBA2"/>
  <rect id="86646163894148ffa69d4bb57d84f1e5-oa-13" height="14.46429" width="31.94197" y="405.56252" x="209.93307" stroke="#2D2D2D" fill="#FFEBA2"/>
  <rect id="86646163894148ffa69d4bb57d84f1e5-oa-14" height="19.28571" width="54.24107" y="404.95984" x="329.86611" stroke="#2D2D2D" fill="#FFEBA2"/>
  <rect id="86646163894148ffa69d4bb57d84f1e5-oa-15" height="19.28571" width="72.32143" y="466.43306" x="367.83486" stroke="#2D2D2D" fill="#FFEBA2"/>
  <rect id="86646163894148ffa69d4bb57d84f1e5-oa-16" height="27.72322" width="65.69197" y="464.02234" x="246.09378" stroke="#2D2D2D" fill="#FFEBA2"/>
 </g>
</svg>